<svg width="14" height="14" viewBox="0 0 14 14" fill="none" xmlns="http://www.w3.org/2000/svg">
<path d="M7.5 0L13.5428 0.00182295L13.6281 0.0166082L13.691 0.0377922L13.767 0.077188L13.8221 0.117594L13.8824 0.177876L13.9112 0.21534L13.9533 0.288604L13.9834 0.371861L13.9979 0.454214L14 0.5V6.5C14 6.77614 13.7761 7 13.5 7C13.2545 7 13.0504 6.82312 13.0081 6.58988L13 6.5V1.706L1.706 13H6.5C6.74546 13 6.94961 13.1769 6.99194 13.4101L7 13.5C7 13.7455 6.82312 13.9496 6.58988 13.9919L6.5 14L0.479643 13.9996L0.411201 13.9921L0.308964 13.9622L0.23299 13.9228L0.177856 13.8824L0.117575 13.8221L0.0888426 13.7847L0.0467436 13.7114L0.0166109 13.6281L0.0110857 13.605C0.00382522 13.5713 0 13.5361 0 13.5L0.00546193 13.5739L0.00182366 13.5428L0 7.5C0 7.22386 0.223858 7 0.5 7C0.74546 7 0.949608 7.17688 0.991944 7.41012L1 7.5V12.292L12.292 1H7.5C7.25454 1 7.05039 0.823125 7.00806 0.589876L7 0.5C7 0.223858 7.22386 0 7.5 0Z" fill="#424242"/>
</svg>
